Coordinates
version=1
nRows=21
nColumns=22
inDegrees=yes

Units are S.I. units (second, meters, Newtons, ...)
If the header above contains a line with 'inDegrees', this indicates whether rotational values are in degrees (yes) or radians (no).

endheader
time	pelvis_tilt	pelvis_list	pelvis_rotation	pelvis_tx	pelvis_ty	pelvis_tz	hip_flexion_r	hip_adduction_r	hip_rotation_r	knee_angle_r	ankle_angle_r	subtalar_angle_r	hip_flexion_l	hip_adduction_l	hip_rotation_l	knee_angle_l	ankle_angle_l	subtalar_angle_l	lumbar_extension	lumbar_bending	lumbar_rotation
      3.16000000	      4.14249997	    -14.72973848	      8.23224804	      0.33370147	      0.87207172	     -0.10361987	     -2.00857682	     -8.01388567	      9.04028013	    -46.57200890	     -7.21842672	     15.33528252	     30.31190488	    -18.02694733	    -10.96377690	    -37.51358318	      7.40741764	    -10.13708342	     -3.22127871	      3.99836424	     40.45161848
      3.17000000	      4.63330689	    -14.43093493	     10.93062474	      0.34218144	      0.87421637	     -0.11193595	     -1.22226837	     -8.81124715	      8.62194498	    -47.17650632	     -6.64367301	     12.84396697	     29.53942813	    -16.46456582	     -9.52958171	    -36.95832198	      7.67801923	     -9.96196005	     -3.19840445	      3.78461126	     39.62808099
      3.18000000	      5.10944208	    -14.17067251	     13.76912915	      0.35011435	      0.87615513	     -0.12023458	     -0.49172504	     -9.43630890	      8.30533792	    -47.65998564	     -6.27358754	     10.90582260	     28.81779609	    -14.97711922	     -7.96047373	    -36.39272898	      7.89809421	     -9.74119393	     -3.17778406	      3.62217711	     38.71569011
      3.19000000	      5.56095644	    -13.98252877	     16.71105962	      0.35747941	      0.87786754	     -0.12842319	      0.22091381	     -9.85640463	      8.12193392	    -48.02532821	     -6.08358402	      9.59147330	     28.16793333	    -13.61197841	     -6.27022124	    -35.82745494	      8.07962446	     -9.48410110	     -3.13709377	      3.54383015	     37.74951796
      3.20000000	      5.99512112	    -13.89170936	     19.70571610	      0.36428961	      0.87935679	     -0.13637083	      0.95331076	    -10.04601221	      8.12176288	    -48.29232772	     -6.03035399	      8.90484359	     27.59741498	    -12.42029457	     -4.50263369	    -35.28409846	      8.24864635	     -9.19811948	     -3.06605298	      3.57098972	     36.78394968
      3.21000000	      6.38840997	    -13.87210470	     22.72953903	      0.37054482	      0.88059623	     -0.14405374	      1.74781097	    -10.07028608	      8.28365496	    -48.47894086	     -6.04354567	      8.86182344	     27.11962373	    -11.36112784	     -2.68967982	    -34.75250148	      8.38850612	     -9.00411929	     -2.94007671	      3.66236452	     35.84113164
      3.22000000	      6.87193865	    -14.00945802	     25.80114339	      0.37630535	      0.88175781	     -0.15139882	      2.49934346	     -9.78175999	      8.62171579	    -48.52266921	     -6.12673745	      9.14234845	     26.68735595	    -10.57961604	     -0.81597289	    -34.26714561	      8.53552524	     -8.56467468	     -2.83997657	      3.95290825	     34.94673974
      3.23000000	      7.36383706	    -14.19912197	     28.87803550	      0.38162757	      0.88278324	     -0.15840072	      3.29609653	     -9.36534023	      9.09634001	    -48.49047607	     -6.18969154	      9.83811326	     26.30106827	     -9.94754351	      1.01219008	    -33.76469603	      8.67073794	     -8.15493150	     -2.70431448	      4.29662410	     34.09215892
      3.24000000	      7.89783245	    -14.39767759	     31.97059353	      0.38650473	      0.88372671	     -0.16508225	      4.08197619	     -8.86947123	      9.68693404	    -48.37409537	     -6.20514184	     10.84453352	     25.94136665	     -9.42818425	      2.78968933	    -33.28922727	      8.80809672	     -7.68503563	     -2.58561808	      4.66305065	     33.32781502
      3.25000000	      8.47961145	    -14.55992351	     35.07496683	      0.39100690	      0.88465312	     -0.17145599	      4.83666005	     -8.35734568	     10.34450422	    -48.20654612	     -6.09019994	     11.95323215	     25.55638616	     -8.99679549	      4.43096805	    -32.79170173	      8.89704241	     -7.20360906	     -2.50338767	      5.01593010	     32.62456209
      3.26000000	      9.11568667	    -14.66165075	     38.21017215	      0.39513304	      0.88559958	     -0.17760854	      5.52756670	     -7.86846974	     11.00409348	    -47.97484026	     -5.96446235	     12.93578255	     25.13182156	     -8.62345188	      5.91050665	    -32.27600385	      8.98011451	     -6.78420197	     -2.47463877	      5.35337243	     31.95749016
      3.27000000	      9.77887972	    -14.66863394	     41.37207418	      0.39887945	      0.88655324	     -0.18355581	      6.16005404	     -7.46383009	     11.62854445	    -47.71572670	     -5.78379013	     13.75764464	     24.66897971	     -8.26536910	      7.15362895	    -31.74483729	      9.02358302	     -6.44306311	     -2.49727738	      5.63857921	     31.31251826
      3.28000000	     10.43855646	    -14.57386707	     44.57060089	      0.40221850	      0.88748089	     -0.18936080	      6.73592336	     -7.18268705	     12.16599283	    -47.42735186	     -5.63880500	     14.24232115	     24.19414113	     -7.87806869	      8.13145811	    -31.22978302	      9.05442008	     -6.27730260	     -2.55165440	      5.85875290	     30.67696490
      3.29000000	     11.07563928	    -14.38616921	     47.80034799	      0.40514800	      0.88832590	     -0.19502578	      7.27245153	     -7.03386162	     12.59936206	    -47.15016526	     -5.45147751	     14.49979745	     23.74085384	     -7.45035651	      8.77439801	    -30.78537081	      9.02612621	     -6.25319606	     -2.61814607	      6.02438217	     30.02769989
      3.30000000	     11.69066134	    -14.12594961	     51.07308410	      0.40764691	      0.88907844	     -0.20055285	      7.76701327	     -6.99961982	     12.90072384	    -46.87667513	     -5.30316738	     14.52039764	     23.31896035	     -6.98735666	      9.06926808	    -30.42828202	      8.97965699	     -6.39915043	     -2.68953777	      6.15786721	     29.34696704
      3.31000000	     12.28322236	    -13.80416101	     54.39659617	      0.40971401	      0.88973156	     -0.20597308	      8.20743668	     -7.06474525	     13.05304641	    -46.60246194	     -5.16920689	     14.10729433	     22.91905402	     -6.49066177	      9.01272143	    -30.15949200	      8.91210999	     -6.88518109	     -2.75584888	      6.27759506	     28.59901338
      3.32000000	     12.81444360	    -13.47881330	     57.79029996	      0.41131900	      0.89014069	     -0.21128557	      8.66263226	     -7.23672677	     13.00171034	    -46.34438759	     -5.07375003	     13.33713008	     22.61756032	     -5.95540756	      8.63459960	    -29.99639074	      8.85745049	     -7.50731600	     -2.73522945	      6.39583859	     27.71918564
      3.33000000	     13.29311052	    -13.15822441	     61.25557512	      0.41247429	      0.89030752	     -0.21645455	      9.11794358	     -7.48652962	     12.79133056	    -46.10406317	     -4.88664556	     12.22991816	     22.38941325	     -5.39052848	      7.98139739	    -29.90978466	      8.80219546	     -8.24701948	     -2.62986790	      6.51444471	     26.69562331
      3.34000000	     13.73608968	    -12.84485040	     64.80564329	      0.41317579	      0.89023361	     -0.22145807	      9.55158266	     -7.80254183	     12.41181109	    -45.87108779	     -4.57704984	     10.87444783	     22.20134245	     -4.81404885	      7.10999915	    -29.85147870	      8.77459135	     -9.00741133	     -2.45081684	      6.64233437	     25.49676925
      3.35000000	     14.16890228	    -12.53688867	     68.46392817	      0.41339705	      0.88993695	     -0.22626405	      9.94290815	     -8.16114816	     11.84244719	    -45.63407409	     -4.21325874	      9.33922527	     22.02511496	     -4.24591805	      6.08419593	    -29.78803795	      8.77462756	     -9.73160969	     -2.21638418	      6.79628346	     24.09650090
      3.36000000	     14.57958949	    -12.21610237	     72.21486778	      0.41317810	      0.88941495	     -0.23080255	     10.28204780	     -8.56247268	     11.13305149	    -45.41685051	     -3.63915428	      7.64254583	     21.81578978	     -3.67525970	      4.96675421	    -29.66445059	      8.82868255	    -10.36068460	     -1.94253306	      6.94632174	     22.49642434
